<?xml version="1.0" encoding="utf-8"?>
<!-- Generator: Adobe Illustrator 22.0.0, SVG Export Plug-In . SVG Version: 6.00 Build 0)  -->
<svg version="1.1" id="Layer_1" xmlns="http://www.w3.org/2000/svg" xmlns:xlink="http://www.w3.org/1999/xlink" x="0px" y="0px"
	 viewBox="0 0 347.2 413.1" style="enable-background:new 0 0 347.2 413.1;" xml:space="preserve">
<style type="text/css">
	.st0{fill:#002A8B;}
</style>
<title>y_android</title>
<g id="Layer_2_1_">
	<g id="Layer_1-2">
		<path class="st0" d="M278.4,136.4H68.8c-4.7,0-8.4,3.8-8.4,8.4c0,0,0,0,0,0v175.8c0,4.7,3.8,8.4,8.5,8.4h37.4v59.2
			c0,13.7,11.1,24.9,24.9,24.9c0,0,0,0,0,0l0,0c13.7,0,24.9-11.1,24.9-24.9c0,0,0,0,0,0V329h34.8v59.2c0,13.7,11.1,24.9,24.9,24.9
			c0,0,0,0,0,0l0,0c13.7,0,24.9-11.1,24.9-24.9c0,0,0,0,0,0V329h37.9c4.7,0,8.4-3.8,8.4-8.4l0,0V144.8
			C286.8,140.2,283.1,136.4,278.4,136.4L278.4,136.4z"/>
		<path class="st0" d="M24.9,136.4L24.9,136.4C11.1,136.4,0,147.5,0,161.2c0,0,0,0,0,0v101.1c0,13.7,11.1,24.9,24.9,24.9l0,0
			c13.7,0,24.9-11.1,24.9-24.9l0,0V161.2C49.8,147.5,38.6,136.4,24.9,136.4z"/>
		<path class="st0" d="M322.3,136.4L322.3,136.4c-13.7,0-24.9,11.1-24.9,24.9c0,0,0,0,0,0v101.1c0,13.7,11.1,24.9,24.9,24.9l0,0
			c13.7,0,24.9-11.1,24.9-24.9c0,0,0,0,0,0V161.2C347.2,147.5,336.1,136.4,322.3,136.4z"/>
		<path class="st0" d="M70.5,124.1h205.7c4.7,0,8.5-3.8,8.5-8.5c0-0.6-0.1-1.2-0.2-1.7c-6.8-32-27-59.5-55.5-75.5l17.6-31.7
			c1.1-2.2,0.2-4.9-2-6c-2.1-1.1-4.6-0.3-5.8,1.7l-17.7,32c-30.3-14-65.2-14-95.5,0l-17.7-32c-1.3-2.1-4-2.8-6.1-1.5
			c-2,1.2-2.7,3.7-1.7,5.8l17.6,31.7c-28.5,16-48.7,43.6-55.5,75.5c-1,4.6,2,9.1,6.5,10C69.3,124,69.9,124.1,70.5,124.1z
			 M234.7,76.8c0,5.3-4.3,9.6-9.6,9.6c-5.3,0-9.6-4.3-9.6-9.6c0-5.3,4.3-9.6,9.6-9.6c0,0,0,0,0,0C230.4,67.2,234.7,71.5,234.7,76.8
			C234.7,76.8,234.7,76.8,234.7,76.8z M121.5,67.2c5.3,0,9.6,4.2,9.6,9.5c0,5.3-4.2,9.6-9.5,9.6s-9.6-4.2-9.6-9.5c0,0,0,0,0,0
			C112,71.5,116.3,67.2,121.5,67.2z"/>
	</g>
</g>
</svg>
