<?xml version="1.0" encoding="utf-8"?>
<!-- Generator: Adobe Illustrator 22.0.0, SVG Export Plug-In . SVG Version: 6.00 Build 0)  -->
<svg version="1.1" id="Layer_1" xmlns="http://www.w3.org/2000/svg" xmlns:xlink="http://www.w3.org/1999/xlink" x="0px" y="0px"
	 viewBox="0 0 199.4 244" style="enable-background:new 0 0 199.4 244;" xml:space="preserve">
<style type="text/css">
	.st0{fill:#002A8B;}
</style>
<title>y_apple</title>
<g id="Layer_2_1_">
	<g id="Layer_1-2">
		<path class="st0" d="M10.3,89.7c-20.6,35.8-7.5,90.1,15.3,123.1C37,229.2,48.5,244,64.3,244c0.3,0,0.6,0,0.9,0
			c7.4-0.3,12.8-2.6,18-4.8c5.8-2.5,11.8-5,21.3-5c9,0,14.7,2.5,20.3,4.9c5.5,2.4,11.1,4.8,19.4,4.7c17.8-0.3,28.7-16.3,38.3-30.4
			c7.2-10.6,12.9-22.2,16.8-34.4l0.1-0.2c0.3-1-0.1-2-1.1-2.4l-0.1-0.1c-3.1-1.3-30.6-13.5-30.9-46.7c-0.3-27,20.6-41.3,24.8-43.9
			l0.2-0.1c0.5-0.3,0.8-0.8,0.9-1.3c0.1-0.5,0-1.1-0.3-1.5c-14.4-21.1-36.5-24.3-45.4-24.7c-1.3-0.1-2.6-0.2-4-0.2
			C133,57.9,123,61.8,114.9,65c-5.6,2.2-10.3,4.1-13.7,4.1c-3.7,0-8.5-1.9-14.1-4.1c-7.5-3-15.9-6.3-24.9-6.3h-0.6
			C40.8,58.9,21.1,70.9,10.3,89.7L10.3,89.7z"/>
		<path class="st0" d="M147.4,0c-12.6,0.5-27.7,8.3-36.8,18.9c-7.7,8.9-15.2,23.7-13.2,38.7c0.1,0.9,0.9,1.7,1.8,1.7
			c0.8,0.1,1.7,0.1,2.6,0.1c12.3,0,25.6-6.8,34.7-17.8c9.6-11.6,14.4-26.5,12.9-39.8C149.3,0.7,148.4,0,147.4,0z"/>
	</g>
</g>
</svg>
